<?xml version="1.0" standalone="no"?><!DOCTYPE svg PUBLIC "-//W3C//DTD SVG 1.1//EN" "http://www.w3.org/Graphics/SVG/1.1/DTD/svg11.dtd"><svg t="1553849387201" class="icon" style="" viewBox="0 0 1024 1024" version="1.1" xmlns="http://www.w3.org/2000/svg" p-id="21267" xmlns:xlink="http://www.w3.org/1999/xlink" width="16" height="16"><defs><style type="text/css"></style></defs><path d="M88.421461 67.16057c-3.775298 0-7.550597 1.490249-10.431745 4.371398-2.881149 2.881149-4.272048 6.656447-4.272048 10.431745l0.09935 306.991365c0 1.887649 1.192199 3.775298 3.079849 4.570098 1.887649 0.7948 3.973998 0.29805 5.364898-1.09285l103.721354-103.323955 139.089939 138.493839c2.682449 2.682449 6.358397 4.272048 10.431745 4.272048s7.749297-1.688949 10.431745-4.272048l94.481808-94.084409c2.682449-2.682449 4.371398-6.358397 4.371398-10.531095 0-4.073348-1.688949-7.848647-4.371398-10.531095L301.427768 174.259823l100.840206-100.442806c1.390899-1.390899 1.887649-3.477248 1.09285-5.364898-0.7948-1.887649-2.682449-3.079849-4.570098-3.079849L88.421461 67.16057 88.421461 67.16057zM88.421461 67.16057" p-id="21268" fill="#6D91BB"></path><path d="M88.520811 928.723392c-3.775298 0-7.550597-1.390899-10.531095-4.371398-2.881149-2.881149-4.371398-6.656447-4.371398-10.531095l0.09935-309.574464c0-1.887649 1.192199-3.775298 3.079849-4.570098 1.887649-0.7948 3.973998-0.29805 5.364898 1.09285l103.721354 103.323955 139.089939-138.593189c2.682449-2.682449 6.358397-4.272048 10.431745-4.272048 4.073348 0 7.749297 1.688949 10.431745 4.272048l94.481808 94.084409c2.682449 2.682449 4.371398 6.358397 4.371398 10.531095 0 4.073348-1.688949 7.848647-4.371398 10.531095L301.427768 819.14039l100.939556 100.542156c1.390899 1.390899 1.887649 3.477248 1.09285 5.364898-0.7948 1.887649-2.583099 3.079849-4.570098 3.079849L88.520811 928.723392 88.520811 928.723392zM88.520811 928.723392" p-id="21269" fill="#6D91BB"></path><path d="M922.464345 67.16057c3.775298 0 7.550597 1.490249 10.431745 4.371398 2.881149 2.881149 4.272048 6.656447 4.272048 10.431745l-0.09935 306.991365c0 1.887649-1.192199 3.775298-3.079849 4.570098-1.887649 0.7948-3.973998 0.29805-5.364898-1.09285l-103.721354-103.323955-139.089939 138.493839c-2.682449 2.682449-6.358397 4.272048-10.431745 4.272048-4.073348 0-7.749297-1.688949-10.431745-4.272048l-94.481808-94.084409c-2.682449-2.682449-4.371398-6.358397-4.371398-10.531095 0-4.073348 1.688949-7.848647 4.371398-10.531095l139.089939-138.493839L608.518483 73.817018c-1.390899-1.390899-1.887649-3.477248-1.09285-5.364898 0.7948-1.887649 2.682449-3.079849 4.570098-3.079849L922.464345 67.16057 922.464345 67.16057zM922.464345 67.16057" p-id="21270" fill="#6D91BB"></path><path d="M922.265645 928.723392c3.775298 0 7.550597-1.390899 10.531095-4.371398 2.881149-2.881149 4.371398-6.656447 4.371398-10.531095l-0.09935-309.574464c0-1.986999-1.192199-3.775298-3.079849-4.570098-1.887649-0.7948-3.973998-0.29805-5.364898 1.09285l-103.721354 103.323955-139.089939-138.593189c-2.682449-2.682449-6.358397-4.272048-10.431745-4.272048-4.073348 0-7.749297 1.688949-10.431745 4.272048l-94.481808 94.084409c-2.682449 2.682449-4.371398 6.358397-4.371398 10.531095 0 4.073348 1.688949 7.848647 4.371398 10.531095l139.089939 138.493839L608.419133 919.682546c-1.390899 1.390899-1.887649 3.477248-1.09285 5.364898 0.7948 1.887649 2.583099 3.079849 4.570098 3.079849L922.265645 928.723392 922.265645 928.723392zM922.265645 928.723392" p-id="21271" fill="#6D91BB"></path></svg>