<?xml version="1.0" standalone="no"?><!DOCTYPE svg PUBLIC "-//W3C//DTD SVG 1.1//EN" "http://www.w3.org/Graphics/SVG/1.1/DTD/svg11.dtd"><svg t="1553849563951" class="icon" style="" viewBox="0 0 1024 1024" version="1.1" xmlns="http://www.w3.org/2000/svg" p-id="25825" xmlns:xlink="http://www.w3.org/1999/xlink" width="16" height="16"><defs><style type="text/css"></style></defs><path d="M822.4 400h-73.6v-61.44c0.48-6.4 0.8-12.8 0.8-19.36 0-128.96-104.64-233.6-233.6-233.6s-233.6 104.64-233.6 233.6c0 6.56 0.32 12.96 0.8 19.36V400h-78.4c-26.4 0-48 21.6-48 48v444.8c0 26.4 21.6 48 48 48h617.6c26.4 0 48-21.6 48-48V448c0-26.4-21.6-48-48-48zM561.6 676.32V785.6h-81.6v-108.16c-19.36-12.96-32-34.88-32-59.84 0-39.84 32.16-72 72-72s72 32.16 72 72c0 24.32-12 45.76-30.4 58.72zM662.4 400H368v-83.2c1.76-79.84 66.88-144 147.2-144s145.44 64.16 147.2 144v83.2z" p-id="25826" fill="#6D91BB"></path></svg>