<?xml version="1.0" standalone="no"?><!DOCTYPE svg PUBLIC "-//W3C//DTD SVG 1.1//EN" "http://www.w3.org/Graphics/SVG/1.1/DTD/svg11.dtd"><svg t="1553849434301" class="icon" style="" viewBox="0 0 1024 1024" version="1.1" xmlns="http://www.w3.org/2000/svg" p-id="23019" xmlns:xlink="http://www.w3.org/1999/xlink" width="16" height="16"><defs><style type="text/css"></style></defs><path d="M270.08 64.064H90.88C76.032 64.064 64 76.096 64 90.944V270.016c0 14.912 12.032 26.944 26.88 26.944s27.008-12.032 27.008-26.944c0-1.536-0.256-3.136-0.512-4.608V122.176c0-2.496 1.984-4.48 4.416-4.48H267.2c0.96 0.064 1.92 0.256 2.88 0.256 14.848 0 26.944-12.032 26.944-26.944s-12.096-26.944-26.944-26.944z" fill="#6D91BB" p-id="23020"></path><path d="M847.552 830.784c0 9.856-8.128 17.856-17.92 17.856H190.528c-9.856 0-17.856-8-17.856-17.856v-639.04c0-9.92 8-17.92 17.856-17.92h639.104c9.792 0 17.92 8 17.92 17.92v639.04z" fill="#6D91BB" p-id="23021"></path><path d="M753.792 64.064h179.2c14.848 0 26.88 12.032 26.88 26.88v178.688c0 0.128 0.128 0.256 0.128 0.384 0 14.912-12.096 26.944-27.008 26.944s-26.944-12.032-26.944-26.944c0-1.536 0.256-3.136 0.448-4.608V122.176c0-2.496-1.92-4.48-4.48-4.48H756.672c-1.024 0.064-1.856 0.256-2.88 0.256-14.848 0-26.88-12.032-26.88-26.944s12.032-26.944 26.88-26.944zM270.08 959.936H90.88c-14.848 0-26.88-11.968-26.88-26.816V754.368v-0.384c0-14.912 12.032-27.008 26.88-27.008s27.008 12.032 27.008 27.008c0 1.536-0.256 3.136-0.512 4.608V901.76c0 2.496 1.984 4.48 4.416 4.48H267.2c0.96-0.064 1.856-0.256 2.816-0.256 14.848 0 26.944 12.032 26.944 26.944s-12.032 27.008-26.88 27.008zM753.792 959.936h179.2c14.848 0 26.88-12.032 26.88-26.816V754.368c0-0.128 0.128-0.256 0.128-0.384 0-14.912-12.096-27.008-27.008-27.008s-26.944 12.032-26.944 27.008c0 1.536 0.256 3.136 0.448 4.608V901.76c0 2.496-1.92 4.48-4.48 4.48H756.672c-1.024-0.064-1.856-0.256-2.88-0.256-14.848 0-26.88 12.032-26.88 26.944s12.032 27.008 26.88 27.008z" fill="#6D91BB" p-id="23022"></path></svg>