<?xml version="1.0" standalone="no"?><!DOCTYPE svg PUBLIC "-//W3C//DTD SVG 1.1//EN" "http://www.w3.org/Graphics/SVG/1.1/DTD/svg11.dtd"><svg t="1553849473379" class="icon" style="" viewBox="0 0 1024 1024" version="1.1" xmlns="http://www.w3.org/2000/svg" p-id="23961" xmlns:xlink="http://www.w3.org/1999/xlink" width="16" height="16"><defs><style type="text/css"></style></defs><path d="M731.02848 72.00768c-121.6 0-220.53888 98.88256-220.53888 220.48256v145.19808h84.69504V296.08448c0-74.89536 60.99456-135.88992 135.90016-135.88992 74.90048 0 135.7824 60.99456 135.7824 135.88992v141.60384h84.59776V292.49536c-0.01024-121.60512-98.8416-220.48768-220.43648-220.48768zM692.77184 437.68832H126.98624c-30.07488 0-54.4512 24.37632-54.4512 54.4512v397.52704c0 30.14656 24.37632 54.51776 54.4512 54.51776h565.84704c30.07488 0 54.4-24.37632 54.4-54.51776v-397.5168c-0.01536-30.08-24.3712-54.46144-54.46144-54.46144z m-252.29312 263.58272v86.8096c0 3.88096-3.2 7.15264-7.14752 7.15264h-46.81216a7.2192 7.2192 0 0 1-7.20384-7.15264v-86.8096c-21.9904-11.2384-37.22752-33.792-37.22752-60.21632 0-37.40672 30.37184-67.80416 67.75296-67.80416 37.4528 0 67.8144 30.40256 67.8144 67.80416 0.06144 26.42432-15.17056 48.9728-37.17632 60.21632z" p-id="23962" fill="#6D91BB"></path></svg>